<mxfile host="app.diagrams.net" agent="Mozilla/5.0 (Windows NT 10.0; Win64; x64) AppleWebKit/537.36 (KHTML, like Gecko) Chrome/130.0.0.0 Safari/537.36" version="25.0.3">
  <diagram name="Trang-1" id="wo70yCYxaLcVJMsX_qfx">
    <mxGraphModel dx="1937" dy="851" grid="1" gridSize="10" guides="1" tooltips="1" connect="1" arrows="1" fold="1" page="1" pageScale="1" pageWidth="3300" pageHeight="4681" math="0" shadow="0">
      <root>
        <mxCell id="0" />
        <mxCell id="1" parent="0" />
        <mxCell id="LpFu22LyahOeN2MfV0FG-60" value="Employees" style="swimlane;fontStyle=0;childLayout=stackLayout;horizontal=1;startSize=26;horizontalStack=0;resizeParent=1;resizeParentMax=0;resizeLast=0;collapsible=1;marginBottom=0;align=center;fontSize=14;" parent="1" vertex="1">
          <mxGeometry x="2490" y="1830" width="170" height="150" as="geometry" />
        </mxCell>
        <mxCell id="LpFu22LyahOeN2MfV0FG-61" value="employees_id - int&lt;div&gt;department_id - int&lt;/div&gt;&lt;div&gt;full_name - nvarchar(255)&lt;/div&gt;&lt;div&gt;email - nvarchar(50)&lt;/div&gt;&lt;div&gt;phone_number - int&lt;/div&gt;&lt;div&gt;address - nvarchar(255)&lt;/div&gt;&lt;div&gt;password - nvarchar(255)&lt;/div&gt;&lt;div&gt;picture_profile - nvarchar(25)&lt;/div&gt;" style="text;strokeColor=none;fillColor=none;spacingLeft=4;spacingRight=4;overflow=hidden;rotatable=0;points=[[0,0.5],[1,0.5]];portConstraint=eastwest;fontSize=12;whiteSpace=wrap;html=1;" parent="LpFu22LyahOeN2MfV0FG-60" vertex="1">
          <mxGeometry y="26" width="170" height="124" as="geometry" />
        </mxCell>
        <mxCell id="LpFu22LyahOeN2MfV0FG-69" value="Card_Request" style="swimlane;fontStyle=0;childLayout=stackLayout;horizontal=1;startSize=26;horizontalStack=0;resizeParent=1;resizeParentMax=0;resizeLast=0;collapsible=1;marginBottom=0;align=center;fontSize=14;" parent="1" vertex="1">
          <mxGeometry x="3050" y="1840" width="160" height="100" as="geometry" />
        </mxCell>
        <mxCell id="LpFu22LyahOeN2MfV0FG-70" value="request_id - int (FK)&lt;div&gt;card_id - nvarchar(255)&lt;/div&gt;&lt;div&gt;update_date - date&lt;/div&gt;&lt;div&gt;status - nvarchar(255)&lt;/div&gt;&lt;div&gt;&lt;br&gt;&lt;/div&gt;" style="text;strokeColor=none;fillColor=none;spacingLeft=4;spacingRight=4;overflow=hidden;rotatable=0;points=[[0,0.5],[1,0.5]];portConstraint=eastwest;fontSize=12;whiteSpace=wrap;html=1;" parent="LpFu22LyahOeN2MfV0FG-69" vertex="1">
          <mxGeometry y="26" width="160" height="74" as="geometry" />
        </mxCell>
        <mxCell id="LpFu22LyahOeN2MfV0FG-83" value="Request" style="swimlane;fontStyle=0;childLayout=stackLayout;horizontal=1;startSize=26;horizontalStack=0;resizeParent=1;resizeParentMax=0;resizeLast=0;collapsible=1;marginBottom=0;align=center;fontSize=14;" parent="1" vertex="1">
          <mxGeometry x="2760" y="1840" width="190" height="130" as="geometry" />
        </mxCell>
        <mxCell id="LpFu22LyahOeN2MfV0FG-84" value="request_id - int (PK)&lt;div&gt;employees_id - int (FK)&lt;/div&gt;&lt;div&gt;content_request - nvarchar(max)&lt;/div&gt;&lt;div&gt;type_of_request - nvarchar(255)&lt;/div&gt;&lt;div&gt;status_request - nvarchar(255)&lt;br&gt;&lt;div&gt;date_sent_request - date&lt;/div&gt;&lt;/div&gt;" style="text;strokeColor=none;fillColor=none;spacingLeft=4;spacingRight=4;overflow=hidden;rotatable=0;points=[[0,0.5],[1,0.5]];portConstraint=eastwest;fontSize=12;whiteSpace=wrap;html=1;" parent="LpFu22LyahOeN2MfV0FG-83" vertex="1">
          <mxGeometry y="26" width="190" height="104" as="geometry" />
        </mxCell>
        <mxCell id="LpFu22LyahOeN2MfV0FG-87" value="" style="edgeStyle=entityRelationEdgeStyle;fontSize=12;html=1;endArrow=ERzeroToMany;startArrow=ERzeroToOne;rounded=0;" parent="1" edge="1">
          <mxGeometry width="100" height="100" relative="1" as="geometry">
            <mxPoint x="2660" y="1960" as="sourcePoint" />
            <mxPoint x="2760" y="1860" as="targetPoint" />
            <Array as="points">
              <mxPoint x="2720" y="1880" />
            </Array>
          </mxGeometry>
        </mxCell>
        <mxCell id="LpFu22LyahOeN2MfV0FG-88" value="" style="edgeStyle=entityRelationEdgeStyle;fontSize=12;html=1;endArrow=ERmandOne;startArrow=ERmandOne;rounded=0;" parent="1" edge="1">
          <mxGeometry width="100" height="100" relative="1" as="geometry">
            <mxPoint x="2950" y="1960" as="sourcePoint" />
            <mxPoint x="3050" y="1860" as="targetPoint" />
          </mxGeometry>
        </mxCell>
        <mxCell id="CiBGgHgG7XloILpeLHoA-193" value="" style="rounded=1;whiteSpace=wrap;html=1;fillColor=#CCFFCC;" vertex="1" parent="1">
          <mxGeometry x="1350" y="800" width="480" height="400" as="geometry" />
        </mxCell>
        <mxCell id="CiBGgHgG7XloILpeLHoA-195" value="&lt;span style=&quot;font-size: 25px;&quot;&gt;&lt;b&gt;Lịch sử yêu cầu&lt;/b&gt;&lt;/span&gt;" style="text;strokeColor=none;align=center;fillColor=none;html=1;verticalAlign=middle;whiteSpace=wrap;rounded=0;" vertex="1" parent="1">
          <mxGeometry x="1462.92" y="810" width="230" height="30" as="geometry" />
        </mxCell>
        <mxCell id="CiBGgHgG7XloILpeLHoA-196" value="" style="rounded=1;whiteSpace=wrap;html=1;" vertex="1" parent="1">
          <mxGeometry x="1430" y="850" width="320" height="40" as="geometry" />
        </mxCell>
        <mxCell id="CiBGgHgG7XloILpeLHoA-197" value="" style="image;aspect=fixed;html=1;points=[];align=center;fontSize=12;image=img/lib/azure2/general/Search.svg;" vertex="1" parent="1">
          <mxGeometry x="1440" y="858.37" width="22.92" height="23.27" as="geometry" />
        </mxCell>
        <mxCell id="CiBGgHgG7XloILpeLHoA-198" value="" style="rounded=0;whiteSpace=wrap;html=1;" vertex="1" parent="1">
          <mxGeometry x="1365" y="900" width="30" height="270" as="geometry" />
        </mxCell>
        <mxCell id="CiBGgHgG7XloILpeLHoA-199" value="" style="rounded=0;whiteSpace=wrap;html=1;" vertex="1" parent="1">
          <mxGeometry x="1395" y="900" width="90" height="270" as="geometry" />
        </mxCell>
        <mxCell id="CiBGgHgG7XloILpeLHoA-200" value="" style="rounded=0;whiteSpace=wrap;html=1;" vertex="1" parent="1">
          <mxGeometry x="1485" y="900" width="100" height="270" as="geometry" />
        </mxCell>
        <mxCell id="CiBGgHgG7XloILpeLHoA-201" value="" style="rounded=0;whiteSpace=wrap;html=1;" vertex="1" parent="1">
          <mxGeometry x="1585" y="900" width="90" height="270" as="geometry" />
        </mxCell>
        <mxCell id="CiBGgHgG7XloILpeLHoA-202" value="" style="rounded=0;whiteSpace=wrap;html=1;" vertex="1" parent="1">
          <mxGeometry x="1675" y="900" width="70" height="270" as="geometry" />
        </mxCell>
        <mxCell id="CiBGgHgG7XloILpeLHoA-203" value="" style="rounded=0;whiteSpace=wrap;html=1;" vertex="1" parent="1">
          <mxGeometry x="1745" y="900" width="65" height="270" as="geometry" />
        </mxCell>
        <mxCell id="CiBGgHgG7XloILpeLHoA-204" value="" style="rounded=0;whiteSpace=wrap;html=1;fillColor=#e1d5e7;strokeColor=#9673a6;fontStyle=1;fontSize=14;" vertex="1" parent="1">
          <mxGeometry x="1365" y="900" width="445" height="40" as="geometry" />
        </mxCell>
        <mxCell id="CiBGgHgG7XloILpeLHoA-205" value="&lt;font&gt;STT&lt;/font&gt;" style="text;strokeColor=none;align=center;fillColor=none;html=1;verticalAlign=middle;whiteSpace=wrap;rounded=0;fontStyle=1;fontSize=14;" vertex="1" parent="1">
          <mxGeometry x="1350" y="905" width="60" height="30" as="geometry" />
        </mxCell>
        <mxCell id="CiBGgHgG7XloILpeLHoA-206" value="Mã yêu cầu" style="text;strokeColor=none;align=center;fillColor=none;html=1;verticalAlign=middle;whiteSpace=wrap;rounded=0;fontStyle=1;fontSize=14;" vertex="1" parent="1">
          <mxGeometry x="1400" y="905" width="80" height="30" as="geometry" />
        </mxCell>
        <mxCell id="CiBGgHgG7XloILpeLHoA-208" value="Loại yêu cầu" style="text;strokeColor=none;align=center;fillColor=none;html=1;verticalAlign=middle;whiteSpace=wrap;rounded=0;fontStyle=1;fontSize=14;" vertex="1" parent="1">
          <mxGeometry x="1505" y="905" width="60" height="30" as="geometry" />
        </mxCell>
        <mxCell id="CiBGgHgG7XloILpeLHoA-209" value="Trạng thái" style="text;strokeColor=none;align=center;fillColor=none;html=1;verticalAlign=middle;whiteSpace=wrap;rounded=0;fontStyle=1;fontSize=14;" vertex="1" parent="1">
          <mxGeometry x="1680" y="905" width="60" height="30" as="geometry" />
        </mxCell>
        <mxCell id="CiBGgHgG7XloILpeLHoA-210" value="Phòng ban" style="text;strokeColor=none;align=center;fillColor=none;html=1;verticalAlign=middle;whiteSpace=wrap;rounded=0;fontStyle=1;fontSize=14;" vertex="1" parent="1">
          <mxGeometry x="1750" y="905" width="65" height="30" as="geometry" />
        </mxCell>
        <mxCell id="CiBGgHgG7XloILpeLHoA-211" value="" style="rounded=1;whiteSpace=wrap;html=1;fillColor=#e1d5e7;strokeColor=#9673a6;" vertex="1" parent="1">
          <mxGeometry x="790" y="850" width="480" height="320" as="geometry" />
        </mxCell>
        <mxCell id="CiBGgHgG7XloILpeLHoA-212" value="&lt;font style=&quot;font-size: 25px;&quot;&gt;&lt;b&gt;Đăng nhập hệ thống&lt;/b&gt;&lt;/font&gt;" style="text;strokeColor=none;align=center;fillColor=none;html=1;verticalAlign=middle;whiteSpace=wrap;rounded=0;" vertex="1" parent="1">
          <mxGeometry x="885" y="880" width="290" height="30" as="geometry" />
        </mxCell>
        <mxCell id="CiBGgHgG7XloILpeLHoA-213" value="" style="rounded=0;whiteSpace=wrap;html=1;fillColor=#CCFFCC;" vertex="1" parent="1">
          <mxGeometry x="830" y="959.9999999999999" width="400" height="40" as="geometry" />
        </mxCell>
        <mxCell id="CiBGgHgG7XloILpeLHoA-214" value="&lt;font style=&quot;font-size: 15px;&quot;&gt;Username:&lt;/font&gt;" style="text;strokeColor=none;align=center;fillColor=none;html=1;verticalAlign=middle;whiteSpace=wrap;rounded=0;" vertex="1" parent="1">
          <mxGeometry x="830" y="921.64" width="60" height="30" as="geometry" />
        </mxCell>
        <mxCell id="CiBGgHgG7XloILpeLHoA-215" value="" style="rounded=0;whiteSpace=wrap;html=1;fillColor=#CCFFCC;strokeColor=#CCFFCC;" vertex="1" parent="1">
          <mxGeometry x="830" y="1058.3600000000001" width="400" height="40" as="geometry" />
        </mxCell>
        <mxCell id="CiBGgHgG7XloILpeLHoA-216" value="&lt;font style=&quot;font-size: 15px;&quot;&gt;Password:&lt;/font&gt;" style="text;strokeColor=none;align=center;fillColor=none;html=1;verticalAlign=middle;whiteSpace=wrap;rounded=0;" vertex="1" parent="1">
          <mxGeometry x="830" y="1019.9999999999999" width="60" height="30" as="geometry" />
        </mxCell>
        <mxCell id="CiBGgHgG7XloILpeLHoA-217" value="&lt;span style=&quot;font-size: 15px;&quot;&gt;Tranlaluot&lt;/span&gt;" style="text;strokeColor=none;align=center;fillColor=none;html=1;verticalAlign=middle;whiteSpace=wrap;rounded=0;" vertex="1" parent="1">
          <mxGeometry x="830" y="964.9999999999999" width="60" height="30" as="geometry" />
        </mxCell>
        <mxCell id="CiBGgHgG7XloILpeLHoA-218" value="&lt;span style=&quot;font-size: 15px;&quot;&gt;******&lt;/span&gt;" style="text;strokeColor=none;align=center;fillColor=none;html=1;verticalAlign=middle;whiteSpace=wrap;rounded=0;" vertex="1" parent="1">
          <mxGeometry x="830" y="1063.3600000000001" width="60" height="30" as="geometry" />
        </mxCell>
        <mxCell id="CiBGgHgG7XloILpeLHoA-219" value="" style="rounded=1;whiteSpace=wrap;html=1;fillColor=#0050ef;fontColor=#ffffff;strokeColor=#001DBC;" vertex="1" parent="1">
          <mxGeometry x="1150" y="1110" width="90" height="50" as="geometry" />
        </mxCell>
        <mxCell id="CiBGgHgG7XloILpeLHoA-220" value="&lt;font style=&quot;font-size: 17px;&quot;&gt;&lt;b&gt;LOGIN&lt;/b&gt;&lt;/font&gt;" style="text;strokeColor=none;align=center;fillColor=none;html=1;verticalAlign=middle;whiteSpace=wrap;rounded=0;" vertex="1" parent="1">
          <mxGeometry x="1165" y="1120" width="60" height="30" as="geometry" />
        </mxCell>
        <mxCell id="CiBGgHgG7XloILpeLHoA-221" value="&lt;font style=&quot;font-size: 20px;&quot;&gt;&lt;b&gt;Danh mục&lt;/b&gt;&lt;/font&gt;" style="swimlane;fontStyle=0;childLayout=stackLayout;horizontal=1;startSize=30;horizontalStack=0;resizeParent=1;resizeParentMax=0;resizeLast=0;collapsible=1;marginBottom=0;whiteSpace=wrap;html=1;fillColor=#e1d5e7;strokeColor=#9673a6;" vertex="1" parent="1">
          <mxGeometry x="1040" y="1340" width="280" height="90" as="geometry" />
        </mxCell>
        <mxCell id="CiBGgHgG7XloILpeLHoA-222" value="&lt;font style=&quot;font-size: 17px;&quot;&gt;Danh sách yêu cầu&amp;nbsp;&lt;/font&gt;" style="text;strokeColor=#9673a6;fillColor=#e1d5e7;align=left;verticalAlign=middle;spacingLeft=4;spacingRight=4;overflow=hidden;points=[[0,0.5],[1,0.5]];portConstraint=eastwest;rotatable=0;whiteSpace=wrap;html=1;" vertex="1" parent="CiBGgHgG7XloILpeLHoA-221">
          <mxGeometry y="30" width="280" height="30" as="geometry" />
        </mxCell>
        <mxCell id="CiBGgHgG7XloILpeLHoA-223" value="Thông tin tàii khoản" style="text;strokeColor=#9673a6;fillColor=#e1d5e7;align=left;verticalAlign=middle;spacingLeft=4;spacingRight=4;overflow=hidden;points=[[0,0.5],[1,0.5]];portConstraint=eastwest;rotatable=0;whiteSpace=wrap;html=1;" vertex="1" parent="CiBGgHgG7XloILpeLHoA-221">
          <mxGeometry y="60" width="280" height="30" as="geometry" />
        </mxCell>
        <mxCell id="CiBGgHgG7XloILpeLHoA-225" style="edgeStyle=orthogonalEdgeStyle;rounded=0;orthogonalLoop=1;jettySize=auto;html=1;exitX=1;exitY=0.25;exitDx=0;exitDy=0;entryX=1.001;entryY=0.167;entryDx=0;entryDy=0;entryPerimeter=0;" edge="1" parent="1" source="CiBGgHgG7XloILpeLHoA-221" target="CiBGgHgG7XloILpeLHoA-221">
          <mxGeometry relative="1" as="geometry" />
        </mxCell>
        <mxCell id="CiBGgHgG7XloILpeLHoA-226" value="" style="shape=flexArrow;endArrow=classic;html=1;rounded=0;fillColor=#f0a30a;strokeColor=#BD7000;exitX=1;exitY=0.25;exitDx=0;exitDy=0;entryX=0.472;entryY=0.018;entryDx=0;entryDy=0;entryPerimeter=0;" edge="1" parent="1" target="CiBGgHgG7XloILpeLHoA-221">
          <mxGeometry width="50" height="50" relative="1" as="geometry">
            <mxPoint x="1203.51" y="1160" as="sourcePoint" />
            <mxPoint x="1156.4829729729734" y="1377.5" as="targetPoint" />
          </mxGeometry>
        </mxCell>
        <mxCell id="CiBGgHgG7XloILpeLHoA-227" value="" style="shape=flexArrow;endArrow=classic;html=1;rounded=0;entryX=0.01;entryY=0.121;entryDx=0;entryDy=0;entryPerimeter=0;fillColor=#f0a30a;strokeColor=#BD7000;exitX=0.941;exitY=0.008;exitDx=0;exitDy=0;exitPerimeter=0;" edge="1" parent="1" source="CiBGgHgG7XloILpeLHoA-221" target="CiBGgHgG7XloILpeLHoA-193">
          <mxGeometry width="50" height="50" relative="1" as="geometry">
            <mxPoint x="1190" y="810" as="sourcePoint" />
            <mxPoint x="1050" y="1090" as="targetPoint" />
          </mxGeometry>
        </mxCell>
        <mxCell id="CiBGgHgG7XloILpeLHoA-229" value="" style="rounded=0;whiteSpace=wrap;html=1;" vertex="1" parent="1">
          <mxGeometry x="1365" y="940" width="445" height="60" as="geometry" />
        </mxCell>
        <mxCell id="CiBGgHgG7XloILpeLHoA-230" value="" style="rounded=0;whiteSpace=wrap;html=1;" vertex="1" parent="1">
          <mxGeometry x="1365" y="1020" width="445" height="60" as="geometry" />
        </mxCell>
        <mxCell id="CiBGgHgG7XloILpeLHoA-231" value="" style="rounded=0;whiteSpace=wrap;html=1;" vertex="1" parent="1">
          <mxGeometry x="1365" y="1100" width="445" height="60" as="geometry" />
        </mxCell>
        <mxCell id="CiBGgHgG7XloILpeLHoA-232" value="&lt;font style=&quot;font-size: 16px;&quot;&gt;1&lt;/font&gt;" style="text;strokeColor=none;align=center;fillColor=none;html=1;verticalAlign=middle;whiteSpace=wrap;rounded=0;" vertex="1" parent="1">
          <mxGeometry x="1350" y="953.36" width="60" height="30" as="geometry" />
        </mxCell>
        <mxCell id="CiBGgHgG7XloILpeLHoA-233" value="&lt;font style=&quot;font-size: 16px;&quot;&gt;2&lt;/font&gt;" style="text;strokeColor=none;align=center;fillColor=none;html=1;verticalAlign=middle;whiteSpace=wrap;rounded=0;" vertex="1" parent="1">
          <mxGeometry x="1350" y="1040" width="60" height="30" as="geometry" />
        </mxCell>
        <mxCell id="CiBGgHgG7XloILpeLHoA-234" value="&lt;font style=&quot;font-size: 16px;&quot;&gt;3&lt;/font&gt;" style="text;strokeColor=none;align=center;fillColor=none;html=1;verticalAlign=middle;whiteSpace=wrap;rounded=0;" vertex="1" parent="1">
          <mxGeometry x="1350" y="1115" width="60" height="30" as="geometry" />
        </mxCell>
        <mxCell id="CiBGgHgG7XloILpeLHoA-235" value="A001" style="text;strokeColor=none;align=center;fillColor=none;html=1;verticalAlign=middle;whiteSpace=wrap;rounded=0;" vertex="1" parent="1">
          <mxGeometry x="1410" y="953.36" width="60" height="30" as="geometry" />
        </mxCell>
        <mxCell id="CiBGgHgG7XloILpeLHoA-236" value="A011" style="text;strokeColor=none;align=center;fillColor=none;html=1;verticalAlign=middle;whiteSpace=wrap;rounded=0;" vertex="1" parent="1">
          <mxGeometry x="1410" y="1035" width="60" height="30" as="geometry" />
        </mxCell>
        <mxCell id="CiBGgHgG7XloILpeLHoA-237" value="B111" style="text;strokeColor=none;align=center;fillColor=none;html=1;verticalAlign=middle;whiteSpace=wrap;rounded=0;" vertex="1" parent="1">
          <mxGeometry x="1410" y="1115" width="60" height="30" as="geometry" />
        </mxCell>
        <mxCell id="CiBGgHgG7XloILpeLHoA-241" value="Nghi phép" style="text;strokeColor=none;align=center;fillColor=none;html=1;verticalAlign=middle;whiteSpace=wrap;rounded=0;" vertex="1" parent="1">
          <mxGeometry x="1505" y="953.36" width="60" height="30" as="geometry" />
        </mxCell>
        <mxCell id="CiBGgHgG7XloILpeLHoA-242" value="Tăng lương" style="text;strokeColor=none;align=center;fillColor=none;html=1;verticalAlign=middle;whiteSpace=wrap;rounded=0;" vertex="1" parent="1">
          <mxGeometry x="1505" y="1030" width="60" height="30" as="geometry" />
        </mxCell>
        <mxCell id="CiBGgHgG7XloILpeLHoA-243" value="Nghỉ phép" style="text;strokeColor=none;align=center;fillColor=none;html=1;verticalAlign=middle;whiteSpace=wrap;rounded=0;" vertex="1" parent="1">
          <mxGeometry x="1505" y="1110" width="60" height="30" as="geometry" />
        </mxCell>
        <mxCell id="CiBGgHgG7XloILpeLHoA-244" value="Chờ phê duyệt" style="text;strokeColor=none;align=center;fillColor=none;html=1;verticalAlign=middle;whiteSpace=wrap;rounded=0;" vertex="1" parent="1">
          <mxGeometry x="1675" y="1033.36" width="60" height="30" as="geometry" />
        </mxCell>
        <mxCell id="CiBGgHgG7XloILpeLHoA-245" value="Đã duyệt" style="text;strokeColor=none;align=center;fillColor=none;html=1;verticalAlign=middle;whiteSpace=wrap;rounded=0;" vertex="1" parent="1">
          <mxGeometry x="1685" y="953.36" width="60" height="30" as="geometry" />
        </mxCell>
        <mxCell id="CiBGgHgG7XloILpeLHoA-246" value="Xem chi tiết" style="text;strokeColor=none;align=center;fillColor=none;html=1;verticalAlign=middle;whiteSpace=wrap;rounded=0;" vertex="1" parent="1">
          <mxGeometry x="1747.5" y="955" width="60" height="30" as="geometry" />
        </mxCell>
        <mxCell id="CiBGgHgG7XloILpeLHoA-262" value="Chờ phê duyệt" style="text;strokeColor=none;align=center;fillColor=none;html=1;verticalAlign=middle;whiteSpace=wrap;rounded=0;" vertex="1" parent="1">
          <mxGeometry x="1680" y="1110" width="60" height="30" as="geometry" />
        </mxCell>
        <mxCell id="CiBGgHgG7XloILpeLHoA-263" value="Xem chi tiết" style="text;strokeColor=none;align=center;fillColor=none;html=1;verticalAlign=middle;whiteSpace=wrap;rounded=0;" vertex="1" parent="1">
          <mxGeometry x="1747.5" y="1030" width="60" height="30" as="geometry" />
        </mxCell>
        <mxCell id="CiBGgHgG7XloILpeLHoA-264" value="Xem chi tiết" style="text;strokeColor=none;align=center;fillColor=none;html=1;verticalAlign=middle;whiteSpace=wrap;rounded=0;" vertex="1" parent="1">
          <mxGeometry x="1750" y="1110" width="60" height="30" as="geometry" />
        </mxCell>
        <mxCell id="CiBGgHgG7XloILpeLHoA-265" value="Ngày gửi" style="text;strokeColor=none;align=center;fillColor=none;html=1;verticalAlign=middle;whiteSpace=wrap;rounded=0;" vertex="1" parent="1">
          <mxGeometry x="1597.5" y="905" width="60" height="30" as="geometry" />
        </mxCell>
        <mxCell id="CiBGgHgG7XloILpeLHoA-266" value="20/09/2024" style="text;strokeColor=none;align=center;fillColor=none;html=1;verticalAlign=middle;whiteSpace=wrap;rounded=0;" vertex="1" parent="1">
          <mxGeometry x="1600" y="953.36" width="60" height="30" as="geometry" />
        </mxCell>
        <mxCell id="CiBGgHgG7XloILpeLHoA-267" value="20/11/2024" style="text;strokeColor=none;align=center;fillColor=none;html=1;verticalAlign=middle;whiteSpace=wrap;rounded=0;" vertex="1" parent="1">
          <mxGeometry x="1597.5" y="1030" width="60" height="30" as="geometry" />
        </mxCell>
        <mxCell id="CiBGgHgG7XloILpeLHoA-268" value="30/11/2024" style="text;strokeColor=none;align=center;fillColor=none;html=1;verticalAlign=middle;whiteSpace=wrap;rounded=0;" vertex="1" parent="1">
          <mxGeometry x="1595" y="1110" width="60" height="30" as="geometry" />
        </mxCell>
        <mxCell id="CiBGgHgG7XloILpeLHoA-269" value="" style="rounded=1;whiteSpace=wrap;html=1;fillColor=#e1d5e7;strokeColor=#9673a6;" vertex="1" parent="1">
          <mxGeometry x="1440" y="1220" width="475" height="280" as="geometry" />
        </mxCell>
        <mxCell id="CiBGgHgG7XloILpeLHoA-270" value="&lt;font style=&quot;font-size: 20px;&quot;&gt;&lt;b&gt;Chi tiết yêu cầu&lt;/b&gt;&lt;/font&gt;" style="text;strokeColor=none;align=center;fillColor=none;html=1;verticalAlign=middle;whiteSpace=wrap;rounded=0;" vertex="1" parent="1">
          <mxGeometry x="1605" y="1230" width="165" height="30" as="geometry" />
        </mxCell>
        <mxCell id="CiBGgHgG7XloILpeLHoA-271" value="&lt;font style=&quot;font-size: 18px;&quot;&gt;Mã yêu cầu: A011&lt;/font&gt;&lt;div&gt;&lt;font style=&quot;font-size: 18px;&quot;&gt;Nhân viên : Tranlaluot&lt;/font&gt;&lt;/div&gt;&lt;div&gt;&lt;font style=&quot;font-size: 18px;&quot;&gt;Loại yêu cầu: Tăng lương&lt;/font&gt;&lt;/div&gt;&lt;div&gt;&lt;font style=&quot;font-size: 18px;&quot;&gt;Ngày gửi: 20/11/2024&lt;/font&gt;&lt;/div&gt;&lt;div&gt;&lt;font style=&quot;font-size: 18px;&quot;&gt;Trạng thái hiện tại: Chờ phê duyệt&lt;/font&gt;&lt;/div&gt;&lt;div&gt;&lt;font style=&quot;font-size: 18px;&quot;&gt;Nội dung: Làm lâu năm và có nhiều thành tích tốt trong công việc.&lt;/font&gt;&lt;/div&gt;" style="text;strokeColor=none;align=left;fillColor=none;html=1;verticalAlign=middle;whiteSpace=wrap;rounded=0;" vertex="1" parent="1">
          <mxGeometry x="1475" y="1270" width="335" height="150" as="geometry" />
        </mxCell>
        <mxCell id="CiBGgHgG7XloILpeLHoA-272" value="&lt;font style=&quot;font-size: 15px;&quot;&gt;[Quay lại]&lt;/font&gt;" style="text;strokeColor=none;align=center;fillColor=none;html=1;verticalAlign=middle;whiteSpace=wrap;rounded=0;" vertex="1" parent="1">
          <mxGeometry x="1485" y="1430" width="60" height="30" as="geometry" />
        </mxCell>
        <mxCell id="CiBGgHgG7XloILpeLHoA-273" value="&lt;font style=&quot;font-size: 15px;&quot;&gt;[Cập nhật mô tả]&lt;/font&gt;" style="text;strokeColor=none;align=center;fillColor=none;html=1;verticalAlign=middle;whiteSpace=wrap;rounded=0;" vertex="1" parent="1">
          <mxGeometry x="1785" y="1430" width="90" height="30" as="geometry" />
        </mxCell>
        <mxCell id="CiBGgHgG7XloILpeLHoA-275" value="" style="rounded=1;whiteSpace=wrap;html=1;fillColor=#d5e8d4;strokeColor=#82b366;" vertex="1" parent="1">
          <mxGeometry x="1910" y="943.36" width="430" height="286.64" as="geometry" />
        </mxCell>
        <mxCell id="CiBGgHgG7XloILpeLHoA-276" value="" style="endArrow=classic;html=1;rounded=0;entryX=-0.001;entryY=0.416;entryDx=0;entryDy=0;entryPerimeter=0;" edge="1" parent="1" target="CiBGgHgG7XloILpeLHoA-275">
          <mxGeometry width="50" height="50" relative="1" as="geometry">
            <mxPoint x="1870" y="1440" as="sourcePoint" />
            <mxPoint x="1990" y="1400" as="targetPoint" />
          </mxGeometry>
        </mxCell>
        <mxCell id="CiBGgHgG7XloILpeLHoA-278" value="&lt;b&gt;&lt;font style=&quot;font-size: 19px;&quot;&gt;Cập nhật mô tả yêu cầu&lt;/font&gt;&lt;/b&gt;" style="text;strokeColor=none;align=center;fillColor=none;html=1;verticalAlign=middle;whiteSpace=wrap;rounded=0;" vertex="1" parent="1">
          <mxGeometry x="1990" y="970" width="240" height="30" as="geometry" />
        </mxCell>
        <mxCell id="CiBGgHgG7XloILpeLHoA-280" value="&lt;u&gt;[Hủy bỏ]&lt;/u&gt;" style="text;strokeColor=none;align=center;fillColor=none;html=1;verticalAlign=middle;whiteSpace=wrap;rounded=0;" vertex="1" parent="1">
          <mxGeometry x="1915" y="1200.0000000000002" width="100" height="30" as="geometry" />
        </mxCell>
        <mxCell id="CiBGgHgG7XloILpeLHoA-287" value="" style="endArrow=classic;html=1;rounded=0;exitX=0.5;exitY=1;exitDx=0;exitDy=0;entryX=0.517;entryY=-0.009;entryDx=0;entryDy=0;entryPerimeter=0;" edge="1" parent="1" source="CiBGgHgG7XloILpeLHoA-263" target="CiBGgHgG7XloILpeLHoA-269">
          <mxGeometry width="50" height="50" relative="1" as="geometry">
            <mxPoint x="1500" y="1210" as="sourcePoint" />
            <mxPoint x="1550" y="1160" as="targetPoint" />
          </mxGeometry>
        </mxCell>
        <mxCell id="CiBGgHgG7XloILpeLHoA-289" value="&lt;u&gt;[Lưu thay đổi]&lt;/u&gt;" style="text;strokeColor=none;align=center;fillColor=none;html=1;verticalAlign=middle;whiteSpace=wrap;rounded=0;" vertex="1" parent="1">
          <mxGeometry x="2200" y="1200.0000000000002" width="100" height="30" as="geometry" />
        </mxCell>
        <mxCell id="CiBGgHgG7XloILpeLHoA-290" value="&lt;font style=&quot;font-size: 17px;&quot;&gt;Mã yêu cầu: A011&lt;/font&gt;&lt;div&gt;&lt;font style=&quot;font-size: 17px;&quot;&gt;Loại yêu cầu: Tăng lương&lt;/font&gt;&lt;/div&gt;&lt;div&gt;&lt;font style=&quot;font-size: 17px;&quot;&gt;Mô tả hiện tại:&lt;/font&gt;&lt;/div&gt;&lt;div&gt;&lt;font style=&quot;font-size: 17px;&quot;&gt;[&amp;nbsp;&lt;span style=&quot;background-color: initial;&quot;&gt;Làm lâu năm và có nhiều thành tích tốt trong công việc.]&lt;/span&gt;&lt;/font&gt;&lt;/div&gt;&lt;div&gt;&lt;span style=&quot;font-size: 17px;&quot;&gt;Mô tả mới:&amp;nbsp;&lt;/span&gt;&lt;/div&gt;&lt;div&gt;&lt;span style=&quot;font-size: 17px;&quot;&gt;[...............]&lt;/span&gt;&lt;/div&gt;&lt;div&gt;&lt;font style=&quot;font-size: 16px;&quot;&gt;Mức độ ưu tiên: [&amp;nbsp;&lt;span style=&quot;background-color: initial;&quot;&gt;Cao ▼]&lt;/span&gt;&lt;/font&gt;&lt;/div&gt;" style="text;strokeColor=none;align=left;fillColor=none;html=1;verticalAlign=middle;whiteSpace=wrap;rounded=0;" vertex="1" parent="1">
          <mxGeometry x="1930" y="1013.36" width="350" height="140" as="geometry" />
        </mxCell>
        <mxCell id="CiBGgHgG7XloILpeLHoA-291" value="" style="endArrow=classic;html=1;rounded=0;exitX=0.363;exitY=0.901;exitDx=0;exitDy=0;exitPerimeter=0;" edge="1" parent="1" source="CiBGgHgG7XloILpeLHoA-289" target="CiBGgHgG7XloILpeLHoA-292">
          <mxGeometry width="50" height="50" relative="1" as="geometry">
            <mxPoint x="2080" y="1420" as="sourcePoint" />
            <mxPoint x="2160" y="1280" as="targetPoint" />
          </mxGeometry>
        </mxCell>
        <mxCell id="CiBGgHgG7XloILpeLHoA-292" value="" style="rounded=1;whiteSpace=wrap;html=1;fillColor=#fff2cc;strokeColor=#d6b656;" vertex="1" parent="1">
          <mxGeometry x="2040" y="1280" width="200" height="180" as="geometry" />
        </mxCell>
        <mxCell id="CiBGgHgG7XloILpeLHoA-293" value="&lt;b&gt;&lt;font style=&quot;font-size: 15px;&quot;&gt;Thông báo kết quả&lt;/font&gt;&lt;/b&gt;" style="text;strokeColor=none;align=center;fillColor=none;html=1;verticalAlign=middle;whiteSpace=wrap;rounded=0;" vertex="1" parent="1">
          <mxGeometry x="2065" y="1290" width="150" height="30" as="geometry" />
        </mxCell>
        <mxCell id="CiBGgHgG7XloILpeLHoA-294" value="&lt;font style=&quot;font-size: 14px;&quot;&gt;Cập nhật mô tả yêu cầu thành công.&lt;/font&gt;&lt;div&gt;&lt;font style=&quot;font-size: 14px;&quot;&gt;Thông tin mô tả và mức độ ưu tiên đã được cập nhật.&lt;/font&gt;&lt;/div&gt;" style="text;strokeColor=none;align=left;fillColor=none;html=1;verticalAlign=middle;whiteSpace=wrap;rounded=0;" vertex="1" parent="1">
          <mxGeometry x="2055" y="1340" width="170" height="30" as="geometry" />
        </mxCell>
        <mxCell id="CiBGgHgG7XloILpeLHoA-295" value="&lt;u&gt;[Quay lại lịch sử yêu cầu]&lt;/u&gt;" style="text;strokeColor=none;align=center;fillColor=none;html=1;verticalAlign=middle;whiteSpace=wrap;rounded=0;" vertex="1" parent="1">
          <mxGeometry x="2065" y="1410" width="60" height="30" as="geometry" />
        </mxCell>
      </root>
    </mxGraphModel>
  </diagram>
</mxfile>
